<svg width="17" height="17" viewBox="0 0 17 17" fill="none" xmlns="http://www.w3.org/2000/svg">
<g clip-path="url(#clip0_2051_4490)">
<path d="M14.543 14.6134H2.79297C2.36199 14.6134 1.94867 14.4422 1.64392 14.1375C1.33917 13.8327 1.16797 13.4194 1.16797 12.9884V3.23842C1.16797 2.80744 1.33917 2.39412 1.64392 2.08937C1.94867 1.78462 2.36199 1.61342 2.79297 1.61342H6.97297C7.27544 1.61213 7.57219 1.69581 7.82943 1.85492C8.08667 2.01404 8.29406 2.2422 8.42797 2.51342L8.88797 3.43342C8.9145 3.48554 8.95441 3.52968 9.00361 3.56131C9.05281 3.59294 9.10953 3.61092 9.16797 3.61342H14.543C14.9739 3.61342 15.3873 3.78462 15.692 4.08937C15.9968 4.39412 16.168 4.80744 16.168 5.23842V12.9884C16.168 13.4194 15.9968 13.8327 15.692 14.1375C15.3873 14.4422 14.9739 14.6134 14.543 14.6134ZM2.79297 2.61342C2.62721 2.61342 2.46824 2.67927 2.35103 2.79648C2.23382 2.91369 2.16797 3.07266 2.16797 3.23842V12.9884C2.16797 13.1542 2.23382 13.3131 2.35103 13.4304C2.46824 13.5476 2.62721 13.6134 2.79297 13.6134H14.543C14.7087 13.6134 14.8677 13.5476 14.9849 13.4304C15.1021 13.3131 15.168 13.1542 15.168 12.9884V5.23842C15.168 5.07266 15.1021 4.91369 14.9849 4.79648C14.8677 4.67927 14.7087 4.61342 14.543 4.61342H9.16797C8.92153 4.61374 8.67992 4.54506 8.47049 4.41516C8.26107 4.28527 8.09219 4.09934 7.98297 3.87842L7.52297 2.95842C7.47214 2.8557 7.39383 2.76907 7.29674 2.70817C7.19965 2.64727 7.08757 2.61447 6.97297 2.61342H2.79297Z" fill="white"/>
<path d="M14.8167 11.7356C14.8135 11.392 14.5323 11.1159 14.1887 11.1191C13.845 11.1223 13.569 11.4035 13.5722 11.7471L13.6076 15.5802C13.6108 15.9239 13.892 16.1999 14.2356 16.1967C14.5793 16.1935 14.8553 15.9123 14.8521 15.5687L14.8167 11.7356Z" fill="white"/>
<path d="M16.1233 13.0118L12.2902 13.0472C11.9466 13.0504 11.6705 13.3316 11.6737 13.6752C11.6769 14.0189 11.9581 14.2949 12.3017 14.2917L16.1348 14.2563C16.4785 14.2531 16.7545 13.9719 16.7513 13.6283C16.7481 13.2846 16.4669 13.0086 16.1233 13.0118Z" fill="white"/>
</g>
<defs>
<clipPath id="clip0_2051_4490">
<rect width="16" height="16" fill="white" transform="translate(0.667969 0.113403)"/>
</clipPath>
</defs>
</svg>
