<svg width="17" height="17" viewBox="0 0 17 17" fill="none" xmlns="http://www.w3.org/2000/svg">
<path d="M13.4414 2.6134H6.44141C6.17619 2.6134 5.92184 2.71876 5.7343 2.9063C5.54676 3.09383 5.44141 3.34819 5.44141 3.6134V4.6134H3.94141C3.67619 4.6134 3.42184 4.71876 3.2343 4.9063C3.04676 5.09383 2.94141 5.34819 2.94141 5.6134V12.6134C2.94141 12.8786 3.04676 13.133 3.2343 13.3205C3.42184 13.508 3.67619 13.6134 3.94141 13.6134H10.9414C11.2066 13.6134 11.461 13.508 11.6485 13.3205C11.836 13.133 11.9414 12.8786 11.9414 12.6134V11.6134H13.4414C13.7066 11.6134 13.961 11.508 14.1485 11.3205C14.336 11.133 14.4414 10.8786 14.4414 10.6134V3.6134C14.4414 3.34819 14.336 3.09383 14.1485 2.9063C13.961 2.71876 13.7066 2.6134 13.4414 2.6134ZM10.9414 12.6134H3.94141V5.6134H5.44141V10.6134C5.44141 10.8786 5.54676 11.133 5.7343 11.3205C5.92184 11.508 6.17619 11.6134 6.44141 11.6134H10.9414V12.6134ZM11.9414 10.6134H6.44141V3.6134H13.4414V10.6134H11.9414Z" fill="white"/>
</svg>
