<svg width="15" height="16" viewBox="0 0 15 16" fill="none" xmlns="http://www.w3.org/2000/svg">
<path d="M8.38487 7.99999L12.3178 4.06686C12.3775 4.00921 12.4251 3.94024 12.4579 3.86399C12.4907 3.78774 12.5079 3.70573 12.5086 3.62274C12.5093 3.53975 12.4935 3.45745 12.4621 3.38064C12.4307 3.30383 12.3843 3.23405 12.3256 3.17537C12.2669 3.11668 12.1971 3.07028 12.1203 3.03885C12.0435 3.00743 11.9612 2.99161 11.8782 2.99233C11.7952 2.99305 11.7132 3.0103 11.637 3.04305C11.5607 3.07581 11.4917 3.12342 11.4341 3.18311L7.50096 7.11608L3.56799 3.18311C3.45035 3.06806 3.29209 3.00404 3.12754 3.00495C2.963 3.00585 2.80545 3.07161 2.68908 3.18796C2.57272 3.3043 2.50693 3.46184 2.50599 3.62638C2.50506 3.79093 2.56905 3.94921 2.68409 4.06686L6.61721 7.99999L2.68409 11.9331C2.62499 11.9909 2.57794 12.0599 2.54568 12.136C2.51341 12.2121 2.49656 12.2938 2.4961 12.3765C2.49565 12.4592 2.5116 12.5411 2.54302 12.6175C2.57445 12.694 2.62073 12.7635 2.67919 12.8219C2.73765 12.8804 2.80712 12.9266 2.88358 12.958C2.96005 12.9895 3.04198 13.0054 3.12465 13.0049C3.20731 13.0045 3.28906 12.9876 3.36516 12.9553C3.44126 12.923 3.5102 12.876 3.56799 12.8169L7.50096 8.8839L11.4341 12.8169C11.5561 12.9389 11.7161 13 11.876 13C12.0358 13 12.196 12.9389 12.3178 12.8169C12.435 12.6997 12.5008 12.5407 12.5008 12.375C12.5008 12.2093 12.435 12.0503 12.3178 11.9331L8.38487 7.99999Z" fill="white"/>
</svg>
