<svg width="16" height="16" viewBox="0 0 16 16" fill="none" xmlns="http://www.w3.org/2000/svg">
<path d="M7.99935 13.8333C6.84563 13.8333 5.71781 13.4912 4.75853 12.8502C3.79924 12.2092 3.05157 11.2982 2.61005 10.2323C2.16854 9.16638 2.05302 7.99349 2.2781 6.86193C2.50318 5.73038 3.05876 4.69098 3.87456 3.87517C4.69037 3.05937 5.72977 2.50379 6.86132 2.27871C7.99288 2.05363 9.16577 2.16915 10.2317 2.61066C11.2976 3.05218 12.2086 3.79985 12.8496 4.75914C13.4906 5.71842 13.8327 6.84624 13.8327 7.99996C13.8327 9.54706 13.2181 11.0308 12.1241 12.1248C11.0302 13.2187 9.54645 13.8333 7.99935 13.8333ZM7.99935 3.16663C7.04341 3.16663 6.10893 3.4501 5.3141 3.98119C4.51926 4.51229 3.89976 5.26715 3.53393 6.15033C3.16811 7.0335 3.07239 8.00532 3.25889 8.9429C3.44538 9.88047 3.90572 10.7417 4.58167 11.4176C5.25762 12.0936 6.11884 12.5539 7.05642 12.7404C7.99399 12.9269 8.96581 12.8312 9.84899 12.4654C10.7322 12.0996 11.487 11.4801 12.0181 10.6852C12.5492 9.89038 12.8327 8.9559 12.8327 7.99996C12.8327 6.71808 12.3235 5.48871 11.417 4.58228C10.5106 3.67585 9.28123 3.16663 7.99935 3.16663Z" fill="#4E9ABA"/>
<path d="M8.5 9.83325H7.5V10.8333H8.5V9.83325Z" fill="#4E9ABA"/>
<path d="M8.5 5.16663H7.5V9.16663H8.5V5.16663Z" fill="#4E9ABA"/>
</svg>
