<svg width="17" height="18" viewBox="0 0 17 18" fill="none" xmlns="http://www.w3.org/2000/svg">
<g clip-path="url(#clip0_2051_4534)">
<path d="M10.409 0.509096C8.64311 0.509096 7.20767 1.88499 7.0738 3.63492C6.00917 3.71674 5.00352 4.2863 4.43083 5.27867C3.73595 6.48195 3.89533 7.92533 4.68902 8.96818L4.2858 9.66149C4.25069 9.71924 4.23927 9.7883 4.25392 9.85428L4.38302 10.3058L3.93146 10.4344C3.86676 10.4521 3.81106 10.4934 3.77535 10.5501C3.73964 10.6069 3.72653 10.675 3.73861 10.741L3.86717 11.2085L3.41614 11.3211C3.34819 11.3387 3.28988 11.3824 3.25373 11.4426C3.21758 11.5028 3.20646 11.5747 3.22277 11.643L3.35186 12.0946L2.9003 12.2072C2.83861 12.2279 2.7866 12.2704 2.75403 12.3267C2.72145 12.3831 2.71056 12.4494 2.72339 12.5132L2.83602 12.9807L2.38445 13.1093C2.35038 13.1189 2.31859 13.1352 2.29102 13.1574C2.26344 13.1796 2.24065 13.2071 2.22402 13.2383L1.96583 13.6735C1.94395 13.7095 1.93108 13.7503 1.9283 13.7924C1.92553 13.8344 1.93293 13.8766 1.94989 13.9152L2.4652 15.0914C2.50611 15.1923 2.61555 15.2603 2.72339 15.2523L4.01274 15.0914C4.05273 15.0862 4.09099 15.0719 4.12453 15.0495C4.15808 15.0271 4.18599 14.9972 4.20611 14.9622L6.91283 10.2575C7.3777 10.316 7.84964 10.2775 8.29886 10.1444C7.86005 9.53023 7.58964 8.78224 7.58964 7.96942C7.58964 6.49361 8.42955 5.20477 9.65195 4.55346C9.4583 4.36136 9.2419 4.19369 9.00755 4.05411C8.62117 3.83086 8.19361 3.68808 7.75061 3.63441C7.69164 3.6275 7.63267 3.63972 7.57371 3.63441C7.70386 2.16497 8.92042 1.02439 10.4095 1.02439C11.9863 1.02439 13.2613 2.29889 13.2613 3.89264C13.2613 4.28576 13.1805 4.67407 13.036 5.02044C12.9978 5.11128 12.9537 5.19203 12.9069 5.27809C12.8559 5.37265 12.7906 5.46455 12.73 5.55221L12.6981 5.60059C12.6461 5.67124 12.5945 5.74405 12.5366 5.80992C12.5218 5.82692 12.5037 5.84177 12.4883 5.85824C12.4368 5.91418 12.3831 5.96803 12.3273 6.01971C12.304 6.04096 12.287 6.06327 12.2625 6.08346C12.1355 6.19502 11.9895 6.2864 11.8439 6.37405C11.7992 6.3137 11.7408 6.26478 11.6736 6.23119C11.6064 6.19759 11.5323 6.18032 11.4571 6.18073C11.1692 6.18073 10.9254 6.40863 10.9254 6.69603C10.9254 6.89259 11.0364 7.05993 11.199 7.14758L11.2149 7.19538C11.2271 7.19006 11.2361 7.18321 11.2468 7.17949H11.2627C11.3227 7.20233 11.3902 7.21133 11.4566 7.21133C11.6558 7.21133 11.8056 7.10082 11.8917 6.93773C12.0936 6.83679 12.2806 6.72045 12.4554 6.58339C12.4607 6.6227 12.4713 6.65566 12.4713 6.69603C12.4713 7.26234 12.0229 7.72714 11.4566 7.72714C11.1835 7.72617 10.9218 7.61733 10.7286 7.4243C10.5353 7.23126 10.4262 6.96969 10.4249 6.69655C10.4257 6.52641 10.4683 6.35907 10.5491 6.20933C10.6299 6.0596 10.7464 5.93208 10.8882 5.83807C11.03 5.74405 11.1928 5.68643 11.3622 5.6703C11.5316 5.65417 11.7023 5.68003 11.8593 5.74559C12.1695 5.49763 12.4131 5.17628 12.568 4.81059C12.211 4.68338 11.835 4.61804 11.4561 4.61727C10.5675 4.61839 9.71559 4.97195 9.08734 5.60039C8.4591 6.22884 8.1058 7.08081 8.10496 7.96942C8.10496 9.3613 8.95495 10.5412 10.1673 11.0464V11.8364C10.1673 11.9002 10.1885 11.965 10.2315 12.0133L10.554 12.3358L10.2315 12.6742C10.184 12.724 10.1574 12.7904 10.1574 12.8593C10.1574 12.9282 10.184 12.9945 10.2315 13.0444L10.554 13.3669L10.2315 13.7053C10.1838 13.7553 10.1572 13.8217 10.1572 13.8907C10.1572 13.9598 10.1838 14.0262 10.2315 14.0761L10.57 14.414L10.248 14.7206C10.1982 14.7684 10.1688 14.8336 10.1658 14.9025C10.1629 14.9715 10.1866 15.0389 10.2321 15.0908L10.5705 15.4292L10.2321 15.7676C10.2089 15.7939 10.1912 15.8245 10.18 15.8578C10.1689 15.891 10.1646 15.9261 10.1673 15.961V16.4764C10.162 16.556 10.2018 16.6362 10.264 16.6862L11.2951 17.4597C11.3399 17.4914 11.3935 17.5084 11.4484 17.5084C11.5033 17.5084 11.5568 17.4914 11.6016 17.4597L12.6323 16.6862C12.6663 16.6626 12.6943 16.6315 12.7139 16.5951C12.7336 16.5587 12.7444 16.5182 12.7454 16.4769V11.0305C13.9482 10.521 14.8083 9.3544 14.8083 7.9689C14.8083 6.87772 14.2653 5.92145 13.4546 5.31051C13.6559 4.86468 13.7602 4.38119 13.7606 3.89205C13.7606 2.01833 12.263 0.508545 10.409 0.508545V0.509096ZM7.78249 4.07007C8.19155 4.07804 8.57086 4.15449 8.87846 4.27934C9.06333 4.38612 9.2397 4.5131 9.39377 4.64963C8.03642 4.21294 6.21795 4.60982 5.47845 5.89066C4.73895 7.17097 5.01892 8.1171 5.2208 8.95222C5.31749 9.35332 5.27127 9.39107 5.2208 9.54832C5.14589 9.78314 5.0322 9.8915 5.01095 10.0801C4.98652 10.2984 5.19689 10.5859 5.10764 10.741C5.01839 10.895 4.60561 10.7925 4.49564 10.9827C4.38567 11.1729 4.7177 11.4093 4.59233 11.6271C4.46642 11.8444 4.08977 11.6786 3.9798 11.8688C3.86983 12.059 4.21089 12.3007 4.07649 12.5291C3.94208 12.7565 3.59092 12.5701 3.48042 12.755C3.36567 12.9473 3.67964 13.2102 3.56117 13.4153C3.44217 13.6208 2.94864 13.657 2.94864 13.657L2.69099 14.1086L2.88436 14.6239L2.73933 14.8656L2.35258 13.9311L2.61024 13.4795L3.30299 13.2867C3.30299 13.2867 2.99911 12.7894 3.12608 12.5775C3.24827 12.3724 3.81883 12.4005 3.81883 12.4005C3.81883 12.4005 3.51974 11.9017 3.64139 11.6914C3.76305 11.481 4.33414 11.5139 4.33414 11.5139C4.33414 11.5139 4.03558 11.0156 4.15724 10.8052C4.27889 10.5949 4.84999 10.6119 4.84999 10.6119L4.67255 9.90266C4.6327 9.75179 5.19742 9.48083 4.97908 8.96818C4.62208 8.13039 4.24064 6.70295 4.91427 5.53632C5.44817 4.61142 6.42727 4.16943 7.36333 4.08602C7.50411 4.0738 7.64649 4.06688 7.78302 4.07007H7.78249ZM11.7785 4.87544C11.9921 4.87544 12.2057 4.8988 12.407 4.9397C10.2151 4.9397 9.28114 6.49095 9.28114 7.96942C9.28114 9.44789 10.0685 10.2628 10.9248 10.7569C11.0311 11.1526 10.7979 11.4842 11.1501 11.8364C11.1501 11.8364 11.5533 12.1732 11.5533 12.3517C11.5533 12.5307 11.1501 12.8675 11.1501 12.8675C11.1501 12.8675 11.5533 13.1321 11.5533 13.3829C11.5533 13.6342 11.1501 13.8987 11.1501 13.8987C11.1501 13.8987 11.5549 14.1489 11.5533 14.4145C11.5533 14.6802 11.1501 14.9139 11.1501 14.9139C11.1501 14.9139 11.5533 15.2088 11.5533 15.4457C11.5533 15.6832 11.1501 15.961 11.1501 15.961C10.8829 16.2133 10.9939 16.352 11.1501 16.4769L11.5692 16.8317L11.8269 17.1537C11.8269 17.1537 10.8919 16.7383 10.7474 16.4769C10.6029 16.216 10.6677 16.1528 10.7474 15.9615C10.8271 15.7697 11.2627 15.4462 11.2627 15.4462C11.2627 15.4462 10.7474 15.077 10.7474 14.9139C10.7474 14.7514 11.2627 14.4145 11.2627 14.4145C11.2627 14.4145 10.7474 14.0129 10.7474 13.8992C10.7474 13.785 11.2627 13.3834 11.2627 13.3834C11.2627 13.3834 10.7474 13.011 10.7474 12.8681C10.7474 12.7246 11.2627 12.3522 11.2627 12.3522L10.7474 11.8369V10.886C10.0594 10.6427 9.47951 10.1641 9.11027 9.5347C8.74103 8.90527 8.60619 8.16558 8.7296 7.44634C8.853 6.72711 9.22669 6.07464 9.78462 5.60428C10.3426 5.13393 11.0488 4.87543 11.7785 4.87544Z" fill="#CBCB41"/>
</g>
<defs>
<clipPath id="clip0_2051_4534">
<rect width="17" height="17" fill="white" transform="translate(0 0.5)"/>
</clipPath>
</defs>
</svg>
