<svg width="18" height="19" viewBox="0 0 18 19" fill="none" xmlns="http://www.w3.org/2000/svg">
<path d="M16.1159 13.2365C14.9726 12.2473 14.1551 9.61877 14.1551 6.53127C14.1551 4.19426 12.6541 2.21292 10.5658 1.48737C10.4252 0.644219 9.69784 0 8.81563 0C7.93344 0 7.20608 0.644219 7.06545 1.48734C4.97713 2.21289 3.47615 4.19426 3.47615 6.53127C3.47615 9.6182 2.65922 12.2461 1.51537 13.2365C0.877015 13.7893 0.509766 14.592 0.509766 15.4375C0.509766 16.4214 1.30653 17.2188 2.28958 17.2188H7.03579C7.03579 18.2026 7.83255 19 8.8156 19C9.79865 19 10.5954 18.2026 10.5954 17.2188H15.3416C16.3247 17.2188 17.1214 16.4214 17.1214 15.4375C17.1215 14.5926 16.7548 13.7893 16.1159 13.2365ZM2.28958 15.4375C2.28958 15.1098 2.43198 14.7981 2.67936 14.5837C4.26874 13.2086 5.25594 10.1228 5.25594 6.53124C5.25594 4.56653 6.85246 2.96873 8.8156 2.96873C10.7787 2.96873 12.3753 4.56653 12.3753 6.53124C12.3753 10.1228 13.3625 13.2086 14.9519 14.5837C15.1999 14.7986 15.3416 15.1097 15.3416 15.4375H2.28958Z" fill="#6E6C85"/>
</svg>
