<svg width="20" height="19" viewBox="0 0 20 19" fill="none" xmlns="http://www.w3.org/2000/svg">
<path d="M14.6096 7.12501C14.6096 3.19032 11.422 0 7.4904 0C3.55887 0 0.371094 3.19032 0.371094 7.12501C0.371094 11.0597 3.55887 14.2499 7.4904 14.2499C11.422 14.2499 14.6096 11.0597 14.6096 7.12501ZM7.4904 12.4686C4.54604 12.4686 2.15097 10.0718 2.15097 7.12504C2.15097 4.17832 4.54604 1.78134 7.4904 1.78134C10.4347 1.78134 12.83 4.17832 12.83 7.12504C12.83 10.0718 10.4347 12.4686 7.4904 12.4686Z" fill="#6E6C85"/>
<path d="M18.8334 15.9594L14.478 11.6002C13.829 12.6103 12.9702 13.4694 11.9609 14.1189L16.3167 18.4781C17.012 19.1739 18.1395 19.1739 18.8334 18.4781C19.5288 17.7835 19.5288 16.6552 18.8334 15.9594Z" fill="#6E6C85"/>
</svg>
