<svg width="20" height="19" viewBox="0 0 20 19" fill="none" xmlns="http://www.w3.org/2000/svg">
<g clip-path="url(#clip0_2051_4429)">
<path d="M16.3464 12.1849C16.4316 11.9861 16.6263 11.857 16.8394 11.8562H16.9107C18.2084 11.8562 19.2641 10.7996 19.2641 9.50096C19.2641 8.20232 18.2084 7.14575 16.9107 7.14575H16.779C16.5961 7.14501 16.4286 7.05253 16.3298 6.90365C16.3188 6.84958 16.3021 6.7967 16.2798 6.74594C16.1902 6.54295 16.2319 6.30942 16.3859 6.15004L16.4279 6.10796C16.4291 6.10684 16.4302 6.10569 16.4313 6.10454C16.8756 5.65945 17.1201 5.06786 17.1197 4.43875C17.1193 3.81071 16.875 3.22034 16.4317 2.776C16.4305 2.77481 16.4293 2.77366 16.4282 2.77247C15.9838 2.32817 15.3932 2.08358 14.7651 2.08358C14.7647 2.08358 14.7642 2.08358 14.7637 2.08358C14.1351 2.08391 13.5443 2.32924 13.1003 2.77403L13.0564 2.81804C12.8972 2.97208 12.6638 3.01379 12.461 2.92421C12.4585 2.92314 12.4559 2.92202 12.4534 2.92095C12.2548 2.83574 12.1258 2.64088 12.125 2.42766V2.35618C12.125 1.05755 11.0693 0.000976562 9.77165 0.000976562C8.47401 0.000976562 7.41832 1.05755 7.41832 2.35618V2.48811C7.41758 2.67113 7.32518 2.83875 7.17642 2.93761C7.12239 2.94856 7.06955 2.96533 7.01883 2.98771C6.81604 3.07733 6.58266 3.03561 6.42341 2.88154L6.37795 2.836C5.93348 2.3917 5.34298 2.14711 4.71486 2.14711C4.71441 2.14711 4.71389 2.14711 4.71349 2.14711C4.08488 2.14744 3.49401 2.39277 3.04854 2.83912C2.60429 3.28417 2.35983 3.87577 2.3602 4.50488C2.36053 5.13399 2.60566 5.72529 3.0501 6.16956L3.09404 6.21353C3.24799 6.37292 3.28967 6.60641 3.20016 6.80943C3.1936 6.82424 3.18759 6.83923 3.18199 6.85441C3.10546 7.06259 2.91409 7.20123 2.69313 7.20921H2.63258C1.33502 7.20921 0.279297 8.26578 0.279297 9.56441C0.279297 10.8631 1.33502 11.9197 2.6327 11.9196H2.76448C2.98065 11.9205 3.17528 12.0495 3.26041 12.2483C3.26149 12.2508 3.2626 12.2533 3.26368 12.2558C3.35322 12.4588 3.31155 12.6923 3.15756 12.8518L3.11362 12.8957C3.11262 12.8967 3.11161 12.8978 3.11058 12.8988C2.66729 13.3437 2.42338 13.9347 2.42372 14.5631C2.42405 15.1922 2.66918 15.7835 3.11391 16.2281C3.11499 16.2292 3.1161 16.2303 3.11721 16.2314C4.03545 17.1472 5.52686 17.1457 6.44295 16.2278L6.48692 16.1838C6.64614 16.0297 6.87948 15.9879 7.08231 16.0776C7.09707 16.0841 7.11205 16.0901 7.12721 16.0957C7.33527 16.1723 7.47376 16.3639 7.48177 16.585V16.6456C7.48177 17.9443 8.53749 19.0008 9.83509 19.0008C11.1328 19.0008 12.1885 17.9443 12.1885 16.6457V16.5138C12.1894 16.2975 12.3183 16.1026 12.5169 16.0174C12.5195 16.0163 12.5219 16.0152 12.5244 16.0142C12.7273 15.9246 12.9606 15.9662 13.1199 16.1203L13.1654 16.1658C13.6098 16.6101 14.2003 16.8548 14.8285 16.8547C14.8289 16.8547 14.8294 16.8547 14.8298 16.8547C15.4585 16.8544 16.0493 16.6091 16.4948 16.1628C17.4118 15.2439 17.411 13.7497 16.4933 12.8322L16.4493 12.7883C16.2954 12.6289 16.2537 12.3954 16.3432 12.1923C16.3443 12.1899 16.3454 12.1874 16.3464 12.1849ZM15.3551 13.8641C15.357 13.8661 15.359 13.8681 15.361 13.8701L15.4089 13.918C15.7285 14.2376 15.7289 14.758 15.4082 15.0792C15.2536 15.2342 15.0478 15.3197 14.8288 15.3198C14.8287 15.3198 14.8285 15.3198 14.8284 15.3198C14.6096 15.3198 14.4039 15.2346 14.2482 15.0789L14.2006 15.0313C14.1986 15.0293 14.1966 15.0273 14.1946 15.0253C13.5854 14.429 12.6885 14.2655 11.9086 14.6083C11.15 14.9356 10.6579 15.6806 10.6546 16.5107V16.6457C10.6546 17.0979 10.2869 17.4659 9.83502 17.4659C9.38313 17.4659 9.01548 17.0979 9.01548 16.6457V16.5742C9.01548 16.5682 9.01541 16.5623 9.01526 16.5563C8.99539 15.706 8.4719 14.9657 7.67936 14.6637C6.90381 14.3316 6.01627 14.4972 5.41195 15.0888C5.40995 15.0908 5.40795 15.0928 5.40594 15.0948L5.35804 15.1427C5.03871 15.4627 4.51874 15.463 4.19901 15.1434C4.19808 15.1424 4.19712 15.1415 4.19623 15.1406C4.04231 14.9859 3.95755 14.7807 3.9574 14.5623C3.95725 14.3432 4.04242 14.1372 4.19712 13.9822C4.19801 13.9814 4.19886 13.9804 4.19975 13.9796L4.24565 13.9336C4.24766 13.9316 4.24966 13.9296 4.25162 13.9276C4.84745 13.318 5.01079 12.4204 4.66836 11.6398C4.34139 10.8805 3.59687 10.3881 2.76741 10.3847H2.63255C2.18066 10.3847 1.81302 10.0167 1.81302 9.56449C1.81302 9.11224 2.1807 8.7443 2.63255 8.74426H2.70396C2.70993 8.74426 2.71594 8.74419 2.72191 8.74404C3.57159 8.72415 4.31125 8.20024 4.613 7.40707C4.94479 6.6309 4.77934 5.74273 4.18822 5.13792C4.18625 5.13592 4.18425 5.13391 4.18225 5.13191L4.13438 5.08397C3.9795 4.92911 3.89414 4.72319 3.89403 4.5041C3.89388 4.28504 3.97905 4.07901 4.13501 3.92275C4.28974 3.76774 4.49549 3.68232 4.71441 3.6822C4.7146 3.6822 4.71471 3.6822 4.71489 3.6822C4.93366 3.6822 5.13934 3.76741 5.29504 3.92308L5.34265 3.97069C5.34462 3.9727 5.34665 3.9747 5.34866 3.97667C5.92031 4.53627 6.74533 4.71469 7.4894 4.45125C7.55971 4.44224 7.62864 4.4235 7.69412 4.39541C8.45503 4.06903 8.94885 3.3228 8.95215 2.49126V2.35629C8.95215 1.90405 9.3198 1.53611 9.77168 1.53611C10.2236 1.53611 10.5913 1.90408 10.5913 2.35633V2.43085C10.5945 3.2579 11.0866 4.00301 11.8453 4.33028C12.6253 4.67309 13.5221 4.50952 14.1313 3.91321C14.1333 3.91124 14.1353 3.90924 14.1373 3.90723L14.1852 3.85933C14.3399 3.70432 14.5457 3.6189 14.7646 3.61879C14.7648 3.61879 14.7649 3.61879 14.7651 3.61879C14.9831 3.61879 15.1883 3.70347 15.3429 3.85732C15.3437 3.85821 15.3446 3.85907 15.3455 3.85996C15.5004 4.01481 15.5857 4.22073 15.5859 4.43983C15.586 4.65832 15.5013 4.86376 15.3475 5.01862C15.3467 5.01936 15.346 5.0201 15.3452 5.02088L15.2976 5.06853C15.2956 5.0705 15.2936 5.0725 15.2916 5.07454C14.7325 5.64665 14.5542 6.47237 14.8174 7.217C14.8265 7.2874 14.8452 7.35638 14.8733 7.42192C15.1994 8.18343 15.945 8.67765 16.7759 8.68096H16.9107C17.3626 8.68096 17.7303 9.04889 17.7303 9.50114C17.7303 9.95339 17.3626 10.3214 16.9107 10.3214H16.8363C16.0099 10.3246 15.2654 10.8171 14.9384 11.5764C14.5959 12.3568 14.7592 13.2544 15.3551 13.8641Z" fill="#6E6C85"/>
<path d="M9.77157 6.35095C8.03658 6.35095 6.625 7.76362 6.625 9.50004C6.625 11.2364 8.03655 12.6491 9.77157 12.6491C11.5066 12.6491 12.9181 11.2364 12.9181 9.50004C12.9181 7.76362 11.5066 6.35095 9.77157 6.35095ZM9.77157 11.1141C8.88229 11.1141 8.1588 10.39 8.1588 9.5C8.1588 8.61001 8.88229 7.88594 9.77157 7.88594C10.6609 7.88594 11.3844 8.61001 11.3844 9.5C11.3844 10.39 10.6609 11.1141 9.77157 11.1141Z" fill="#6E6C85"/>
</g>
<defs>
<clipPath id="clip0_2051_4429">
<rect width="18.9848" height="19" fill="white" transform="translate(0.279297)"/>
</clipPath>
</defs>
</svg>
