<svg width="10" height="13" viewBox="0 0 10 13" fill="none" xmlns="http://www.w3.org/2000/svg">
<path d="M8.67828 4.4355L8.49078 10.489C8.47481 11.0075 8.27006 11.4989 7.91999 11.8589C7.56992 12.219 7.10208 12.4193 6.61578 12.4175H3.05328C2.56729 12.4194 2.09973 12.2193 1.74971 11.8596C1.39969 11.5 1.19473 11.0091 1.17828 10.491L0.990781 4.4355C0.986679 4.3029 1.03213 4.17398 1.11714 4.07712C1.20214 3.98026 1.31974 3.92338 1.44406 3.919C1.56838 3.91463 1.68924 3.96311 1.78005 4.05378C1.87086 4.14446 1.92418 4.2699 1.92828 4.4025L2.11578 10.4575C2.12512 10.716 2.228 10.9606 2.40281 11.1399C2.57762 11.3191 2.81077 11.4192 3.05328 11.419H6.61578C6.8586 11.4192 7.09202 11.3188 7.26688 11.1391C7.44175 10.9594 7.54442 10.7143 7.55328 10.4555L7.74078 4.4025C7.74488 4.2699 7.7982 4.14446 7.88901 4.05378C7.97982 3.96311 8.10068 3.91463 8.225 3.919C8.34932 3.92338 8.46692 3.98026 8.55192 4.07712C8.63693 4.17398 8.68238 4.3029 8.67828 4.4355ZM9.29844 2.421C9.29844 2.55361 9.24905 2.68079 9.16114 2.77456C9.07324 2.86833 8.95401 2.921 8.82969 2.921H0.839844C0.715523 2.921 0.596295 2.86833 0.508387 2.77456C0.42048 2.68079 0.371094 2.55361 0.371094 2.421C0.371094 2.2884 0.42048 2.16122 0.508387 2.06745C0.596295 1.97368 0.715523 1.92101 0.839844 1.92101H2.29297C2.44149 1.92143 2.58485 1.8629 2.69515 1.7568C2.80544 1.65071 2.87479 1.50463 2.88969 1.34701C2.92428 0.977248 3.08668 0.63447 3.34526 0.385459C3.60384 0.136447 3.94007 -0.000961655 4.28844 5.06644e-06H5.38062C5.72899 -0.000961655 6.06522 0.136447 6.3238 0.385459C6.58238 0.63447 6.74478 0.977248 6.77937 1.34701C6.79427 1.50463 6.86362 1.65071 6.97392 1.7568C7.08421 1.8629 7.22757 1.92143 7.37609 1.92101H8.82922C8.95354 1.92101 9.07277 1.97368 9.16067 2.06745C9.24858 2.16122 9.29797 2.2884 9.29797 2.421H9.29844ZM3.70344 1.92101H5.96656C5.90497 1.77088 5.86468 1.6118 5.84703 1.44901C5.83542 1.32576 5.78133 1.2115 5.69525 1.12836C5.60917 1.04522 5.49722 0.999127 5.38109 0.999005H4.28891C4.17278 0.999127 4.06083 1.04522 3.97475 1.12836C3.88867 1.2115 3.83458 1.32576 3.82297 1.44901C3.80517 1.61182 3.7652 1.7709 3.70344 1.92101ZM4.17547 9.49651V5.23901C4.17547 5.1064 4.12608 4.97922 4.03817 4.88545C3.95027 4.79168 3.83104 4.73901 3.70672 4.73901C3.5824 4.73901 3.46317 4.79168 3.37526 4.88545C3.28735 4.97922 3.23797 5.1064 3.23797 5.23901V9.49851C3.23797 9.63111 3.28735 9.75829 3.37526 9.85206C3.46317 9.94583 3.5824 9.99851 3.70672 9.99851C3.83104 9.99851 3.95027 9.94583 4.03817 9.85206C4.12608 9.75829 4.17547 9.63111 4.17547 9.49851V9.49651ZM6.43203 9.49651V5.23901C6.43203 5.1064 6.38264 4.97922 6.29474 4.88545C6.20683 4.79168 6.0876 4.73901 5.96328 4.73901C5.83896 4.73901 5.71973 4.79168 5.63182 4.88545C5.54392 4.97922 5.49453 5.1064 5.49453 5.23901V9.49851C5.49453 9.63111 5.54392 9.75829 5.63182 9.85206C5.71973 9.94583 5.83896 9.99851 5.96328 9.99851C6.0876 9.99851 6.20683 9.94583 6.29474 9.85206C6.38264 9.75829 6.43203 9.63111 6.43203 9.49851V9.49651Z" fill="white"/>
</svg>
