<svg width="10" height="11" viewBox="0 0 10 11" fill="none" xmlns="http://www.w3.org/2000/svg">
<path d="M6.16025 5.00768L9.83102 1.07456C9.88674 1.0169 9.93118 0.947935 9.96175 0.871683C9.99232 0.79543 10.0084 0.713418 10.0091 0.630431C10.0098 0.547444 9.995 0.465144 9.96567 0.388334C9.93634 0.311524 9.89302 0.241741 9.83825 0.183058C9.78348 0.124375 9.71835 0.077967 9.64666 0.0465414C9.57497 0.0151159 9.49816 -0.000697537 9.4207 2.35982e-05C9.34325 0.000744733 9.2667 0.0179862 9.19554 0.0507418C9.12437 0.0834974 9.06 0.131111 9.00619 0.190805L5.33527 4.12377L1.6645 0.190805C1.55471 0.0757507 1.40699 0.0117295 1.25341 0.0126356C1.09984 0.0135418 0.952791 0.0793022 0.844184 0.195645C0.735578 0.311989 0.674176 0.469528 0.673303 0.634074C0.67243 0.79862 0.732157 0.956896 0.839522 1.07456L4.51044 5.00768L0.839522 8.9408C0.784364 8.9986 0.740455 9.06756 0.710339 9.14366C0.680222 9.21977 0.664496 9.30152 0.664071 9.38418C0.663646 9.46685 0.678531 9.54878 0.707863 9.62524C0.737196 9.7017 0.780392 9.77116 0.834953 9.82961C0.889514 9.88805 0.954355 9.93433 1.02572 9.96574C1.09709 9.99715 1.17356 10.0131 1.25071 10.0126C1.32786 10.0121 1.40416 9.99528 1.47519 9.963C1.54622 9.93072 1.61056 9.88366 1.6645 9.82456L5.33527 5.89159L9.00619 9.82456C9.12008 9.94659 9.26942 10.0077 9.4186 10.0077C9.56779 10.0077 9.71727 9.94659 9.83102 9.82456C9.94038 9.70735 10.0018 9.54841 10.0018 9.38268C10.0018 9.21695 9.94038 9.05801 9.83102 8.9408L6.16025 5.00768Z" fill="white"/>
</svg>
